<svg width="135" height="20" fill="none" xmlns="http://www.w3.org/2000/svg"><path d="M11.75 9.775c1.65.775 2.675 2.35 2.675 4.25 0 2.85-2.45 5-5.675 5H.675v-17.5h7.9c3.1 0 5.375 1.875 5.375 4.475 0 1.55-.875 2.95-2.2 3.775ZM9.375 6.8c0-.925-.625-1.525-1.625-1.525H5.3v3.05h2.45c1 0 1.625-.625 1.625-1.525Zm-1.45 8.25c1.05 0 1.725-.65 1.725-1.6 0-.925-.675-1.575-1.725-1.575H5.3v3.175h2.625Zm19.71-9.55h3.474V19h-3.6l-.4-.95c-1.1.9-2.5 1.4-4.075 1.4-4.125 0-7.075-3-7.075-7.2 0-4.175 2.95-7.15 7.075-7.15 1.6 0 3.025.525 4.125 1.45l.475-1.05Zm-3.976 9.85c1.75 0 3.025-1.325 3.025-3.1 0-1.75-1.275-3.05-3.025-3.05s-3.025 1.3-3.025 3.05c0 1.775 1.275 3.1 3.025 3.1ZM42.194 5.125c3.125 0 5.2 2.225 5.2 5.65V19h-4.65v-7.575c0-1.575-.6-2.35-1.775-2.35-1.45 0-2.275 1-2.275 2.725V19h-4.65V5.5h3.275l.625 1.4c1-1.125 2.5-1.775 4.25-1.775ZM63.882 19h-5.5l-3.375-5.7V19h-4.65V.625h4.65V10.8l3.225-5.3h5.225l-4.225 6.45 4.65 7.05Zm8.492-17.5c5.3 0 9.05 3.625 9.05 8.75 0 5.1-3.75 8.75-9.05 8.75h-7.075V1.5h7.075Zm-.225 13.1c2.6 0 4.325-1.775 4.325-4.35 0-2.6-1.725-4.325-4.325-4.325h-2V14.6h2Zm22.453-9.1h3.475V19h-3.6l-.4-.95c-1.1.9-2.5 1.4-4.075 1.4-4.125 0-7.075-3-7.075-7.2 0-4.175 2.95-7.15 7.075-7.15 1.6 0 3.025.525 4.125 1.45l.475-1.05Zm-3.975 9.85c1.75 0 3.025-1.325 3.025-3.1 0-1.75-1.275-3.05-3.025-3.05s-3.025 1.3-3.025 3.05c0 1.775 1.275 3.1 3.025 3.1Zm15.585 4.1c-3.675 0-5.9-1.95-5.95-4.875h4.475c0 1 .7 1.45 1.575 1.45.675 0 1.325-.35 1.325-1.05 0-.775-1.025-1-2.325-1.2-2.1-.35-4.875-.975-4.875-4.25 0-2.7 2.325-4.45 5.775-4.45 3.425 0 5.675 1.825 5.725 4.55h-4.375c0-.85-.575-1.25-1.4-1.25-.75 0-1.25.375-1.25 1 0 .75 1.025.95 2.3 1.175 2.15.375 4.975.825 4.975 4.225 0 2.825-2.375 4.675-5.975 4.675Zm16.404-14.325c3.1 0 5.1 2.25 5.1 5.75V19h-4.65v-7.575c0-1.55-.55-2.35-1.775-2.35-1.4 0-2.275 1-2.275 2.725V19h-4.65V.625h4.65V6.4c1-.8 2.25-1.275 3.6-1.275ZM130.304 19v-4.3h4.525V19h-4.525Z" fill="#343C6A"/></svg>